<?xml version="1.0" encoding="UTF-8" standalone="no"?>
<!-- Created with Inkscape (http://www.inkscape.org/) -->

<svg
   width="50.799999mm"
   height="50.799992mm"
   viewBox="105 0 50.799999 50.799992"
   version="1.1"
   id="svg5"
   xml:space="preserve"
   xmlns:xlink="http://www.w3.org/1999/xlink"
   xmlns="http://www.w3.org/2000/svg"
   xmlns:svg="http://www.w3.org/2000/svg"><defs
     id="defs2"><linearGradient
       id="linearGradient17"><stop
         style="stop-color:#8817c2;stop-opacity:1;"
         offset="0"
         id="stop15" /><stop
         style="stop-color:#7ec6dd;stop-opacity:1;"
         offset="0.51338649"
         id="stop16" /><stop
         style="stop-color:#ffffff;stop-opacity:1;"
         offset="0.99999976"
         id="stop17" /></linearGradient><linearGradient
       id="linearGradient10"><stop
         style="stop-color:#2e3032;stop-opacity:1;"
         offset="0"
         id="stop10" /><stop
         style="stop-color:#0a1624;stop-opacity:1;"
         offset="1"
         id="stop11" /></linearGradient><radialGradient
       xlink:href="#linearGradient10"
       id="radialGradient11"
       cx="383.30682"
       cy="80.488487"
       fx="383.30682"
       fy="80.488487"
       r="72.676956"
       gradientTransform="matrix(-0.43375027,1.3480937,-1.4931828,-0.48043281,684.42711,-373.83917)"
       gradientUnits="userSpaceOnUse" /><radialGradient
       xlink:href="#linearGradient17"
       id="radialGradient13"
       cx="414.60144"
       cy="166.98705"
       fx="414.60144"
       fy="166.98705"
       r="32.578442"
       gradientTransform="matrix(2.1737142,0.11097011,-0.04813714,0.94292434,-440.53215,-25.665896)"
       gradientUnits="userSpaceOnUse" /></defs><g
     id="layer1"
     transform="translate(-316.19322,-124.98772)"><g
       id="g17"
       transform="matrix(0.80889337,0,0,0.80889337,78.800474,34.77634)"
       style="stroke-width:1.23626"><path
         id="path14"
         style="fill:url(#radialGradient13);stroke:none;stroke-width:0.327093"
         d="m 456.98824,174.24205 a 31.400881,31.400881 0 0 0 15.21044,-5.25239 V 125.1851 h -34.72087 l 19.51043,7.93646 z" /><path
         id="path2"
         style="fill:url(#radialGradient11);stroke:none;stroke-width:0.327093"
         d="m 472.19868,168.98966 a 31.400881,31.400881 0 0 0 13.88856,-26.06405 31.400881,31.400881 0 0 0 -31.40118,-31.40118 31.400881,31.400881 0 0 0 -31.40067,31.40118 31.400881,31.400881 0 0 0 31.40067,31.40067 31.400881,31.400881 0 0 0 2.30218,-0.0842 v -41.12049 l -19.51043,-7.93646 h 34.72087 z" /></g></g></svg>
